# xmcd CD database file
#
# Track frame offsets:
#	150
#	16193
#	31799
#	42027
#	58091
#	69140
#	89794
#	109301
#	123566
#	134134
#	145148
#	161665
#	171213
#
# Disc length: 2493 seconds
#
# Revision: 0
# Processed by: cddbd v1.5.2PL0 Copyright (c) Steve Scherf et al.
# Submitted via: Feurio! 1.68 - http://www.feurio.com
#
DISCID=b609bb0d
DTITLE=John Kirkbride and Ferdl Eichner - Riches To Rags
DYEAR=2002
DGENRE=Blues
TTITLE0=A Brand New Fairy Tale
TTITLE1=Movin' On
TTITLE2=Surfing On The Internet
TTITLE3=Riches To Rags Blues
TTITLE4=Spring Has Sprung
TTITLE5=Political Blues
TTITLE6=Broke Down Car Blues
TTITLE7=Train Station Farewell
TTITLE8=Lone Star Laboratories
TTITLE9=What's The Matter With Me?
TTITLE10=A Whiter Shade Of Pale
TTITLE11=Whisky, Harp and Apple Pie
TTITLE12=Doctor, I'm Depending On You
EXTD=
EXTT0=
EXTT1=
EXTT2=
EXTT3=
EXTT4=
EXTT5=
EXTT6=
EXTT7=
EXTT8=
EXTT9=
EXTT10=
EXTT11=
EXTT12=
PLAYORDER=
